<?xml version="1.0" encoding="utf-8"?>
<!-- Generator: Adobe Illustrator 21.1.0, SVG Export Plug-In . SVG Version: 6.00 Build 0)  -->
<svg version="1.1" id="Layer_1" xmlns="http://www.w3.org/2000/svg" xmlns:xlink="http://www.w3.org/1999/xlink" x="0px" y="0px"
	 viewBox="0 0 288 288" style="enable-background:new 0 0 288 288;" xml:space="preserve">
<style type="text/css">
	.st0{fill:none;stroke:#FFFFFF;stroke-width:8;stroke-miterlimit:10;}
</style>
<path class="st0" d="M165.5,136.2c0,0,43.4-52.3,61.1-93.7c0,0,3.3,0.5,1,8.9c0,0-1.6,4.4,2.8,7.9c4.4,3.5,6.5,10.5,0,19.1
	c0,0,2.7,0.7,4.2-0.9c1.5-1.6,5,0,4,12.8s-4.1,14.9,0.2,12.8c4.3-2.1,3.8-2.1,3.8,5.6s-0.5,13.1-4.2,23.1c-3.7,10,1.2,14.7-6.1,23.8
	s-7.2,4.7-14,14.9c-6.8,10.3-12.6,7.7-18.2,9.6c0,0,7.7,10.5,11.2,19.6s17.5,14,31.3,18.2c13.8,4.2,10.3,6.1,8.2,8.9
	c-2.1,2.8-19.8,20.5-48.3,18.4c0,0-1.4-16.1-2.8-24.9c-0.3-1.9-0.6-3.9-0.7-5.9c-0.3-3.9-1.8-10.9-10-7.1
	C178,212.7,132.4,224,86.2,182c-0.8-0.7-1.5-1.4-2.2-2.1c-3.1-3.1-12.7-12.3-16.4-12.2c0,0-14.5-5-12.3-6.6c2.2-1.6,5.4-4.8,8.9-6.8
	c0,0-8-30.4,17.1-41.6c0,0-35.2-30-49.1-41.2c0,0-4.2-3.1,1.7-4.8c6-1.7,25.1,6.2,24.7,0.7c-0.5-5.1,1.8-9.1,18.5-4.3
	c2.2,0.6,4.3,1.4,6.3,2.4c3.8,1.8,10.4,4.5,5.7-1.5c-6.4-8.1,16.6-3.8,30.1,7.5c0,0,6.2,5.8,10.4,1.9
	C133.9,69.5,164.1,92.9,165.5,136.2z"/>
</svg>
