<?xml version="1.0" encoding="utf-8"?>
<!-- Generator: Adobe Illustrator 21.1.0, SVG Export Plug-In . SVG Version: 6.00 Build 0)  -->
<svg version="1.1" id="Layer_1" xmlns="http://www.w3.org/2000/svg" xmlns:xlink="http://www.w3.org/1999/xlink" x="0px" y="0px"
	 viewBox="0 0 288 288" style="enable-background:new 0 0 288 288;" xml:space="preserve">
<style type="text/css">
	.st0{fill:none;stroke:#FFFFFF;stroke-width:8;stroke-miterlimit:10;}
</style>
<polyline class="st0" points="121.4,235.5 121.4,173.6 148.9,136.9 177,173.6 176.5,236 "/>
<polyline class="st0" points="166,159.1 166,108.2 205.9,108.2 205.9,236 "/>
<polyline class="st0" points="196.5,108.2 196.5,35.6 250.1,35.6 251.7,236 "/>
<polyline class="st0" points="37.1,236.8 36.3,135.8 90.7,135.8 90.7,236 "/>
<polyline class="st0" points="82.9,135.8 82.9,69.6 87.7,69.6 87.7,55.7 93.7,55.7 93.7,44.1 128.7,44.1 128.7,55.4 134.8,55.4 
	134.8,69.3 141.2,69.3 141.2,147.2 "/>
</svg>
