<?xml version="1.0" encoding="utf-8"?>
<!-- Generator: Adobe Illustrator 21.1.0, SVG Export Plug-In . SVG Version: 6.00 Build 0)  -->
<svg version="1.1" id="Layer_1" xmlns="http://www.w3.org/2000/svg" xmlns:xlink="http://www.w3.org/1999/xlink" x="0px" y="0px"
	 viewBox="0 0 288 288" style="enable-background:new 0 0 288 288;" xml:space="preserve">
<style type="text/css">
	.st0{fill:none;stroke:#FFFFFF;stroke-width:8;stroke-miterlimit:10;}
</style>
<path class="st0" d="M168.9,121.9c0,0,3.9-19.7-1.1-26.6c1.1-0.1,22.5,27.2,4.1,89.8c0,0,20.2-16.7,16.7-51.5
	c0,0,6.6,18.2,16.7,31.3s11.6,40.9-8.1,57.6c-17.7,15-58.8,29.6-98.6,8.4c-20.9-11.1-30.3-36.4-20.9-58.1c0.2-0.6,0.5-1.1,0.8-1.7
	c14.7-31.5,31.8-32,14.7-70.4c0,0,27.3,13.6,26.3,53.1c0,0,15.5-19.6,8-46c-3.8-13.3-3.1-27.7,2.8-40.2c3.5-7.4,8.8-14.6,17-19.9
	C147.2,47.6,130,94.6,168.9,121.9z"/>
</svg>
