<?xml version="1.0" encoding="utf-8"?>
<!-- Generator: Adobe Illustrator 21.1.0, SVG Export Plug-In . SVG Version: 6.00 Build 0)  -->
<svg version="1.1" id="Layer_1" xmlns="http://www.w3.org/2000/svg" xmlns:xlink="http://www.w3.org/1999/xlink" x="0px" y="0px"
	 viewBox="0 0 1366 768" style="enable-background:new 0 0 1366 768;" xml:space="preserve">
<style type="text/css">
	.st0{fill:#FFB15C;}
</style>
<g>
	<polygon class="st0" points="638.7,406.9 621.6,403.7 610.3,416.9 616,433.3 633.1,436.5 644.4,423.3 	"/>
</g>
<g>
	<path class="st0" d="M523,360l29.2,1.5l13.3,26L549.6,412l-29.2-1.5l-13.3-26L523,360 M513.5,341.5l-27.2,42l22.8,44.5l49.9,2.5
		l27.2-42L563.5,344L513.5,341.5L513.5,341.5z"/>
</g>
<g>
	<path class="st0" d="M691.6,208.3l25.9,29.4L705,274.9l-38.4,7.8l-25.9-29.4l12.5-37.2L691.6,208.3 M698.2,188.6l-58.8,11.9
		l-19.1,56.9l39.7,45l58.8-11.9l19.1-56.9L698.2,188.6L698.2,188.6z"/>
</g>
<g>
	<polygon class="st0" points="501.8,458.5 500.2,441.2 484.4,434 470.2,444.1 471.8,461.4 487.6,468.6 	"/>
</g>
<g>
	<path class="st0" d="M631.8,514.8l29.2,1.5l13.3,26l-15.9,24.5l-29.2-1.5l-13.3-26L631.8,514.8 M622.3,496.3l-27.2,42l22.8,44.5
		l49.9,2.5l27.2-42l-22.8-44.5L622.3,496.3L622.3,496.3z"/>
</g>
<g>
	<path class="st0" d="M717.6,381.4l28.9,4.1l10.9,27.1l-18,23l-28.9-4.1l-10.9-27.1L717.6,381.4 M709.8,362.1L679,401.5l18.7,46.4
		l49.5,7l30.8-39.4l-18.7-46.4L709.8,362.1L709.8,362.1z"/>
</g>
<g>
	<path class="st0" d="M479.3,518.9l17.6,13.6l-3,22l-20.6,8.4l-17.6-13.6l3-22L479.3,518.9 M482,498.3l-39.8,16.3l-5.7,42.6l34,26.3
		l39.8-16.3l5.7-42.6L482,498.3L482,498.3z"/>
</g>
<g>
	<polygon class="st0" points="885,219.1 872.7,206.8 856,211.3 851.5,228.1 863.7,240.4 880.5,235.9 	"/>
</g>
<g>
	<path class="st0" d="M654.6,340.4l14.3,0.7l6.5,12.7l-7.8,12l-14.3-0.7l-6.5-12.7L654.6,340.4 M645.1,321.9l-19.1,29.5l16,31.2
		l35,1.8l19.1-29.5l-16-31.2L645.1,321.9L645.1,321.9z"/>
</g>
<g>
	<path class="st0" d="M522.5,241.9l25.3,14.6v29.2l-25.3,14.6l-25.3-14.6v-29.2L522.5,241.9 M522.5,221.2l-43.3,25v50l43.3,25
		l43.3-25v-50L522.5,221.2L522.5,221.2z"/>
</g>
<g>
	<path class="st0" d="M809.6,471.6l45.5,20.8l4.7,49.8l-40.8,29l-45.5-20.8l-4.7-49.8L809.6,471.6 M807.7,450.9l-57.7,41l6.7,70.5
		l64.4,29.4l57.7-41l-6.7-70.5L807.7,450.9L807.7,450.9z"/>
</g>
<g>
	<polygon class="st0" points="605.5,297.2 612.8,281.4 602.8,267.2 585.5,268.8 578.2,284.6 588.2,298.8 	"/>
</g>
<g>
	<path class="st0" d="M801.1,287.3l20.7,20.7l-7.6,28.2l-28.2,7.6l-20.7-20.7l7.6-28.2L801.1,287.3 M806.4,267.2l-48.3,12.9
		l-12.9,48.3l35.4,35.4l48.3-12.9l12.9-48.3L806.4,267.2L806.4,267.2z"/>
</g>
<g>
	<polygon class="st0" points="732.1,479.5 721,457.8 696.6,456.6 683.4,477 694.5,498.7 718.8,500 	"/>
</g>
<g>
	<polygon class="st0" points="572,511.5 563.9,496.1 546.5,495.4 537.3,510.1 545.3,525.5 562.7,526.2 	"/>
</g>
<g>
	<polygon class="st0" points="585.7,461.8 576.8,460.2 570.9,467 573.9,475.5 582.8,477.2 588.7,470.4 	"/>
</g>
<g>
	<polygon class="st0" points="714.8,558.6 705.8,559.2 701.8,567.3 706.8,574.8 715.8,574.2 719.8,566.1 	"/>
</g>
<g>
	<polygon class="st0" points="572.7,578 569.4,569.6 560.5,568.3 554.9,575.3 558.2,583.8 567.1,585.1 	"/>
</g>
<g>
	<polygon class="st0" points="730.7,325.8 721.8,324.2 715.9,331 718.9,339.5 727.8,341.2 733.7,334.4 	"/>
</g>
<g>
	<polygon class="st0" points="778.7,232.8 769.8,231.2 763.9,238 766.9,246.5 775.8,248.2 781.7,241.4 	"/>
</g>
</svg>
