<?xml version="1.0" encoding="utf-8"?>
<!-- Generator: Adobe Illustrator 21.1.0, SVG Export Plug-In . SVG Version: 6.00 Build 0)  -->
<svg version="1.1" id="Layer_1" xmlns="http://www.w3.org/2000/svg" xmlns:xlink="http://www.w3.org/1999/xlink" x="0px" y="0px"
	 viewBox="0 0 288 288" style="enable-background:new 0 0 288 288;" xml:space="preserve">
<style type="text/css">
	.st0{fill:none;stroke:#FFFFFF;stroke-width:8;stroke-miterlimit:10;}
</style>
<path class="st0" d="M39.2,217.7H19v-63.6c0-9.7,4.1-19.1,11.5-25.3c3-2.5,6.6-4.5,10.7-5.2L64,66.3c0,0,6.4-12.9,21.3-13.9
	c14.9-1,34.2,0,34.2,0V38c0,0,0-8,7.4-8c7.4,0,35.1,0,35.1,0s5.9,0.6,6.9,7.5s0,14.4,0,14.4h35.1c0,0,13.9,2,20.8,16.3
	s21.3,55.6,21.3,55.6s11.9,0.9,18.9,13.7c2.7,4.8,3.9,10.3,3.9,15.8v64.4h-19.9l-0.4,22.1c-0.2,8.2-5.3,15.6-13.1,18.3
	c-0.2,0.1-0.5,0.2-0.8,0.2c-1.8,0.6-3.8,0.8-5.7,0.5c-0.1,0-0.1,0-0.2,0c-9.6-1.3-16.8-9.5-17.2-19.2l-0.8-22.4l-134.8,0.5v19.8
	c0,3.5-0.6,7-1.9,10.2c-2.1,5.2-6.5,11.2-15.6,11.2c0,0-13.8,0.4-18.2-10.4c-0.8-1.9-1.1-3.9-1.1-6L39.2,217.7z"/>
<path class="st0" d="M62.7,122.3h161.9l-14.8-41.7c0,0-3.6-10.3-14.3-10.3c-10.8,0-103.6,0-103.6,0s-8.5-0.9-13,9.4
	C74.4,90,62.7,122.3,62.7,122.3z"/>
<circle class="st0" cx="59.6" cy="159" r="17.5"/>
<circle class="st0" cx="229.7" cy="159" r="17.5"/>
</svg>
