<?xml version="1.0" encoding="utf-8"?>
<!-- Generator: Adobe Illustrator 21.1.0, SVG Export Plug-In . SVG Version: 6.00 Build 0)  -->
<svg version="1.1" id="Layer_1" xmlns="http://www.w3.org/2000/svg" xmlns:xlink="http://www.w3.org/1999/xlink" x="0px" y="0px"
	 viewBox="0 0 1366 768" style="enable-background:new 0 0 1366 768;" xml:space="preserve">
<g>
	<path d="M305.6,310.1l4.4,7.4l4.4,7.4l-8.7,0.1l-8.7,0.1l4.2-7.6L305.6,310.1 M305.1,270.1L284,307.9l-21.2,37.8l43.3-0.5l43.3-0.5
		l-22.1-37.2L305.1,270.1L305.1,270.1z"/>
</g>
<g>
	<path d="M436.5,287.4l4.3,4l4.3,4l-5.6,1.7l-5.6,1.7l1.3-5.7L436.5,287.4 M427.1,256.8l-7.5,32.7l-7.5,32.7l32.1-9.8l32.1-9.8
		l-24.6-22.9L427.1,256.8L427.1,256.8z"/>
</g>
<g>
	<polygon points="366.7,377 393.1,385.9 372.1,404.3 351.2,422.6 345.8,395.3 340.4,368 	"/>
</g>
<g>
	<polygon points="551.6,276.8 606.7,284.7 572.4,328.5 538,372.4 517.2,320.7 496.4,269 	"/>
</g>
<g>
	<path d="M459.7,417.6l4.8,7.2l4.8,7.2l-8.6,0.6l-8.6,0.6l3.8-7.8L459.7,417.6 M457.1,377.7L438,416.5l-19.2,38.8l43.2-2.8l43.2-2.8
		l-24-36L457.1,377.7L457.1,377.7z"/>
</g>
<g>
	<polygon points="385,286.9 392,289.3 386.4,294.2 380.8,299.1 379.4,291.8 377.9,284.5 	"/>
</g>
<g>
	<polygon points="449,344.1 455.1,355.2 442.4,354.9 429.7,354.6 436.3,343.8 442.9,332.9 	"/>
</g>
<g>
	<polygon points="571,372.9 578,375.3 572.4,380.2 566.8,385.1 565.4,377.8 563.9,370.5 	"/>
</g>
<g>
	<polygon points="472.3,257.2 473.2,264.5 466.4,261.7 459.5,258.8 465.4,254.3 471.3,249.8 	"/>
</g>
<g>
	<polygon points="416.2,403.1 417.3,410.4 410.4,407.6 403.5,404.9 409.4,400.3 415.2,395.7 	"/>
</g>
<g>
	<polygon points="496,362.9 503,365.3 497.4,370.2 491.8,375.1 490.4,367.8 488.9,360.5 	"/>
</g>
<g>
	<polygon points="536.1,409.2 540.4,415.2 533.1,416 525.7,416.7 528.7,410 531.7,403.2 	"/>
</g>
<g>
	<path d="M630,334.7l-1.5,5.6L627,346l-4.1-4.1l-4.1-4.1l5.6-1.5L630,334.7 M652.7,312.2l-32.4,8.6l-32.4,8.6l23.7,23.8l23.7,23.8
		l8.8-32.4L652.7,312.2L652.7,312.2z"/>
</g>
</svg>
