<svg id="Layer_1" data-name="Layer 1" xmlns="http://www.w3.org/2000/svg" viewBox="0 0 1366 768"><defs><style>.cls-1{fill:#f2b55c;}</style></defs><title>leaf</title><path class="cls-1" d="M920.5,456.5s15-11,59,15c0,0,8-8,40-9,0,0-19-7,31-39,0,0-52,6-7-40,0,0-28,17,7-59,0,0-16,16-36,15s-22,14-38,13c0,0,3-28,5-51,0,0-22,35-20-10,0,0-4,24-41-61,0,0-11,73-30,53,0,0-3,43-19,13,0,0,22,100-83,21,0,0,31,62,17,85,0,0,30,18-14,28,0,0,45,11,35,20,0,0,22,2,14,10,0,0,10,7,35-3S921.5,447.5,920.5,456.5Z"/><path class="cls-1" d="M930,527h8s-28-26-17-71V432l-4,5S910,500,930,527Z"/></svg>