<?xml version="1.0" encoding="utf-8"?>
<!-- Generator: Adobe Illustrator 21.1.0, SVG Export Plug-In . SVG Version: 6.00 Build 0)  -->
<svg version="1.1" id="Layer_2" xmlns="http://www.w3.org/2000/svg" xmlns:xlink="http://www.w3.org/1999/xlink" x="0px" y="0px"
	 viewBox="0 0 288 288" style="enable-background:new 0 0 288 288;" xml:space="preserve">
<style type="text/css">
	.st0{fill:none;stroke:#FFFFFF;stroke-width:8;stroke-miterlimit:10;}
</style>
<path class="st0" d="M130.1,95.6c0,0-8.9-22.7-27.3-10.5c-9.3,6.2-10.9,17.3-7,26.7c4.1,9.7,13.9,15.9,24.5,15.9h134.5"/>
<path class="st0" d="M62.7,107.1c0,0-7.6-12.3-18.8-7.3c-5.2,2.3-8.5,7.5-9,13.1c-0.5,5.1,0.5,11.6,6.9,16.2
	c3.5,2.5,7.8,3.7,12.1,3.7h26.4"/>
<path class="st0" d="M85.7,173.1c0,0,12.9-14.3,26.3,1.9s-7.6,36.8-26.3,29.2c0,0-13.8-3.1-17.6-18.1c-3.2-12.9,2.2-26.6,13.6-33.5
	c0.3-0.2,0.7-0.4,1-0.6c4.1-2.3,8.7-3.3,13.4-3.3h151.1"/>
<path class="st0" d="M140.6,186.5c0,0-16.2-9.1-6.9-18.7c3-3.1,7.3-4.8,11.7-4.8H230"/>
</svg>
