<svg id="Layer_2" data-name="Layer 2" xmlns="http://www.w3.org/2000/svg" viewBox="0 0 288 288"><defs><style>.cls-1{fill:none;stroke:#fff;stroke-miterlimit:10;stroke-width:8px;}</style></defs><title>wind</title><path class="cls-1" d="M130.12,95.62s-8.91-22.74-27.25-10.52c-9.32,6.22-10.93,17.34-7,26.69a26.46,26.46,0,0,0,24.49,15.86H254.91"/><path class="cls-1" d="M62.71,107.1S55.07,94.8,43.95,99.84a15.83,15.83,0,0,0-9,13.1c-.47,5.08.52,11.62,6.91,16.24A20.62,20.62,0,0,0,54,132.92H80.4"/><path class="cls-1" d="M85.66,173.08S98.57,158.73,112,175s-7.65,36.81-26.3,29.17A25,25,0,0,1,68.06,186.1a30.54,30.54,0,0,1,13.6-33.5l1-.6a27.73,27.73,0,0,1,13.41-3.3H247.26"/><path class="cls-1" d="M140.64,186.46s-16.16-9.13-6.93-18.67A16.22,16.22,0,0,1,145.4,163H230"/></svg>